<svg xmlns="http://www.w3.org/2000/svg" viewBox="70 90 360 360" width="512" height="512">
  <!-- <rect x="50" y="50" width="400" height="400" fill="#f1f5f9" /> -->
  <style>
    #hook, #A, #R {
      color: #5f3d00ff;
    }
  </style>


  <g id="hook">
    <path
      d="
        M 250 230 
        L 330 230 
        A 30 30 0 0 1 360 260
        L 360 360
        A 30 30 0 0 1 330 390 
        L 250 390
        L 250 220 
        A 25 25 0 0 1 260 200 
        A 30 30 0 1 0 220 175
      "
      stroke-width="20"
      stroke-linecap="round"
      stroke-linejoin="round"
      fill="none"
      stroke="currentColor"
    />
  </g>
  <g id="A">
    <path
      d="
        M 250 220 
        L 210 220 
        A 35 35 0 0 0 180 240
        L 120 395
        L 150 395
        L 200 260
        A 10.5 10.5 0 0 1 220 260
        L 250 400
        Z
      "
      stroke="none"
      fill="currentColor"
    />
    <rect 
      x="160" y="320" 
      width="90" height="20" 
      fill="currentColor" 
    />
  </g>
  <g id="R">
    <path
      d="
        M 280 270
        L 320 270
        A 10 10 0 0 1 330 280
        L 330 300
        A 10 10 0 0 1 320 310
        L 280 310 
      "
      stroke-width="15"
      stroke="currentColor"
      stroke-linecap="round"
      stroke-linejoin="round"
      fill="none"
    />
    <path
      d="
        M 310 310
        L 330 350
      "
      stroke-width="15"
      stroke="currentColor"
      stroke-linecap="round"
      stroke-linejoin="round"
      fill="none"
    />
    <path
      d="
        M 280 350 
        L 300 350 
      "
      stroke-width="15"
      stroke="currentColor"
      stroke-linecap="round"
      stroke-linejoin="round"
      fill="none"
    />
  </g>
</svg>